<svg xmlns="http://www.w3.org/2000/svg" viewBox="0 0 128 128">
  <defs>
    <radialGradient id="g" cx="50%" cy="50%" r="65%" fx="40%" fy="40%">
      <stop offset="0%" stop-color="#ff7fbc" />
      <stop offset="50%" stop-color="#ff2994" />
      <stop offset="100%" stop-color="#c4006e" />
    </radialGradient>
    <filter id="grain" x="-20%" y="-20%" width="140%" height="140%">
      <feTurbulence type="fractalNoise" baseFrequency="0.8" numOctaves="4" seed="7" />
      <feColorMatrix type="matrix" values="1 0 0 0 0  0 1 0 0 0  0 0 1 0 0  0 0 0 0.3 0" />
    </filter>
  </defs>
  <rect width="128" height="128" rx="28" fill="#100018" />
  <rect width="112" height="112" x="8" y="8" rx="24" fill="url(#g)" />
  <rect width="112" height="112" x="8" y="8" rx="24" fill="#000" opacity="0.1" filter="url(#grain)" />
  <path d="M64 34c-8.5-10-23-11-31.5-1.2-8 9.2-7.6 24 0.9 33.2l30.6 32.4c.6.6 1.5.6 2.1 0l30.6-32.4c8.6-9.1 8.9-23.9.9-33.2C87 23 72.5 24 64 34z" fill="#fff"/>
  <path d="M64 42c-6.4-7.6-17.4-8.3-23.8-.9-6 7-5.7 18.4.7 25.3L63 90.3c.5.5 1.3.5 1.8 0l22.1-23.9c6.4-6.9 6.7-18.3.7-25.3C81.4 33.8 70.4 34.4 64 42z" fill="#fffeff"/>
</svg>
