<svg xmlns="http://www.w3.org/2000/svg" xmlns:xlink="http://www.w3.org/1999/xlink" width="1080" zoomAndPan="magnify" viewBox="0 0 810 809.999993" height="1080" preserveAspectRatio="xMidYMid meet" version="1.0"><path fill="#ec4899" d="M 697.902344 315.5 C 697.902344 317.203125 697.859375 318.90625 697.777344 320.609375 C 697.691406 322.308594 697.566406 324.007812 697.398438 325.703125 C 697.234375 327.394531 697.023438 329.085938 696.773438 330.769531 C 696.523438 332.457031 696.234375 334.132812 695.898438 335.804688 C 695.566406 337.472656 695.195312 339.132812 694.78125 340.785156 C 694.367188 342.4375 693.910156 344.078125 693.417969 345.710938 C 692.921875 347.339844 692.386719 348.957031 691.8125 350.558594 C 691.238281 352.164062 690.625 353.75 689.972656 355.324219 C 689.320312 356.898438 688.632812 358.453125 687.902344 359.992188 C 687.175781 361.535156 686.410156 363.054688 685.605469 364.554688 C 684.800781 366.058594 683.960938 367.539062 683.085938 369 C 682.210938 370.460938 681.296875 371.898438 680.351562 373.316406 C 679.40625 374.730469 678.421875 376.125 677.410156 377.492188 C 676.394531 378.859375 675.34375 380.203125 674.265625 381.519531 C 673.183594 382.835938 672.070312 384.125 670.925781 385.386719 C 669.78125 386.648438 668.605469 387.878906 667.402344 389.085938 C 666.195312 390.289062 664.960938 391.460938 663.699219 392.605469 C 662.4375 393.75 661.148438 394.863281 659.828125 395.941406 C 658.511719 397.023438 657.167969 398.070312 655.800781 399.085938 C 654.429688 400.097656 653.039062 401.078125 651.621094 402.027344 C 650.203125 402.972656 648.765625 403.882812 647.304688 404.757812 C 645.839844 405.632812 644.359375 406.472656 642.855469 407.277344 C 641.351562 408.078125 639.832031 408.84375 638.292969 409.574219 C 636.75 410.300781 635.191406 410.992188 633.617188 411.640625 C 632.042969 412.292969 630.453125 412.90625 628.851562 413.480469 C 627.246094 414.054688 625.628906 414.589844 623.996094 415.082031 C 622.367188 415.578125 620.722656 416.03125 619.070312 416.445312 C 617.417969 416.859375 615.753906 417.230469 614.085938 417.5625 C 612.414062 417.898438 610.734375 418.1875 609.046875 418.4375 C 607.363281 418.6875 605.671875 418.894531 603.976562 419.0625 C 602.28125 419.230469 600.582031 419.355469 598.878906 419.4375 C 597.175781 419.523438 595.472656 419.5625 593.769531 419.5625 C 592.066406 419.5625 590.363281 419.523438 588.660156 419.4375 C 586.957031 419.355469 585.257812 419.230469 583.5625 419.0625 C 581.867188 418.894531 580.175781 418.6875 578.488281 418.4375 C 576.804688 418.1875 575.125 417.898438 573.453125 417.5625 C 571.78125 417.230469 570.121094 416.859375 568.46875 416.445312 C 566.8125 416.03125 565.171875 415.578125 563.542969 415.082031 C 561.910156 414.589844 560.292969 414.054688 558.6875 413.480469 C 557.082031 412.90625 555.492188 412.292969 553.917969 411.640625 C 552.34375 410.992188 550.789062 410.300781 549.246094 409.574219 C 547.707031 408.84375 546.183594 408.078125 544.679688 407.277344 C 543.179688 406.472656 541.695312 405.632812 540.234375 404.757812 C 538.773438 403.882812 537.332031 402.972656 535.917969 402.027344 C 534.5 401.078125 533.105469 400.097656 531.738281 399.085938 C 530.367188 398.070312 529.027344 397.023438 527.707031 395.941406 C 526.390625 394.863281 525.101562 393.75 523.839844 392.605469 C 522.574219 391.460938 521.339844 390.289062 520.136719 389.085938 C 518.933594 387.878906 517.757812 386.648438 516.613281 385.386719 C 515.46875 384.125 514.355469 382.835938 513.273438 381.519531 C 512.191406 380.203125 511.144531 378.859375 510.128906 377.492188 C 509.113281 376.125 508.132812 374.730469 507.1875 373.316406 C 506.238281 371.898438 505.328125 370.460938 504.453125 369 C 503.574219 367.539062 502.734375 366.058594 501.933594 364.554688 C 501.128906 363.054688 500.363281 361.535156 499.636719 359.992188 C 498.90625 358.453125 498.214844 356.898438 497.5625 355.324219 C 496.910156 353.75 496.296875 352.164062 495.722656 350.558594 C 495.148438 348.957031 494.617188 347.339844 494.121094 345.710938 C 493.625 344.078125 493.171875 342.4375 492.757812 340.785156 C 492.34375 339.132812 491.96875 337.472656 491.636719 335.804688 C 491.304688 334.132812 491.015625 332.457031 490.765625 330.769531 C 490.515625 329.085938 490.304688 327.394531 490.140625 325.703125 C 489.972656 324.007812 489.847656 322.308594 489.761719 320.609375 C 489.679688 318.90625 489.636719 317.203125 489.636719 315.5 C 489.636719 313.796875 489.679688 312.097656 489.761719 310.394531 C 489.847656 308.695312 489.972656 306.996094 490.136719 305.300781 C 490.304688 303.605469 490.515625 301.917969 490.765625 300.230469 C 491.015625 298.546875 491.304688 296.871094 491.636719 295.199219 C 491.96875 293.53125 492.34375 291.867188 492.757812 290.214844 C 493.171875 288.5625 493.625 286.921875 494.121094 285.292969 C 494.617188 283.664062 495.148438 282.046875 495.722656 280.445312 C 496.296875 278.839844 496.910156 277.25 497.5625 275.679688 C 498.214844 274.105469 498.90625 272.546875 499.636719 271.007812 C 500.363281 269.46875 501.128906 267.949219 501.933594 266.445312 C 502.734375 264.945312 503.574219 263.464844 504.453125 262.003906 C 505.328125 260.542969 506.238281 259.101562 507.1875 257.6875 C 508.132812 256.269531 509.113281 254.878906 510.128906 253.511719 C 511.144531 252.144531 512.191406 250.800781 513.273438 249.484375 C 514.355469 248.167969 515.46875 246.878906 516.613281 245.617188 C 517.757812 244.355469 518.929688 243.121094 520.136719 241.917969 C 521.339844 240.714844 522.574219 239.539062 523.839844 238.394531 C 525.101562 237.253906 526.390625 236.140625 527.707031 235.058594 C 529.027344 233.980469 530.367188 232.933594 531.738281 231.917969 C 533.105469 230.902344 534.5 229.921875 535.917969 228.976562 C 537.332031 228.03125 538.773438 227.121094 540.234375 226.242188 C 541.695312 225.367188 543.179688 224.527344 544.679688 223.726562 C 546.183594 222.921875 547.707031 222.15625 549.246094 221.429688 C 550.789062 220.703125 552.34375 220.011719 553.917969 219.359375 C 555.492188 218.707031 557.082031 218.09375 558.6875 217.523438 C 560.292969 216.949219 561.910156 216.414062 563.542969 215.917969 C 565.171875 215.425781 566.8125 214.972656 568.46875 214.558594 C 570.121094 214.144531 571.78125 213.769531 573.453125 213.4375 C 575.125 213.105469 576.804688 212.816406 578.488281 212.566406 C 580.175781 212.316406 581.867188 212.105469 583.5625 211.941406 C 585.257812 211.773438 586.957031 211.648438 588.660156 211.5625 C 590.363281 211.480469 592.066406 211.4375 593.769531 211.4375 C 595.472656 211.4375 597.175781 211.480469 598.878906 211.5625 C 600.582031 211.648438 602.28125 211.773438 603.976562 211.941406 C 605.671875 212.105469 607.363281 212.316406 609.046875 212.566406 C 610.734375 212.816406 612.414062 213.105469 614.085938 213.4375 C 615.753906 213.769531 617.417969 214.144531 619.070312 214.558594 C 620.722656 214.972656 622.367188 215.425781 623.996094 215.917969 C 625.628906 216.414062 627.246094 216.949219 628.851562 217.523438 C 630.453125 218.09375 632.042969 218.707031 633.617188 219.359375 C 635.191406 220.011719 636.75 220.703125 638.292969 221.429688 C 639.832031 222.15625 641.351562 222.921875 642.855469 223.726562 C 644.359375 224.527344 645.839844 225.367188 647.304688 226.242188 C 648.765625 227.121094 650.203125 228.03125 651.621094 228.976562 C 653.039062 229.921875 654.429688 230.902344 655.800781 231.917969 C 657.167969 232.933594 658.511719 233.980469 659.828125 235.058594 C 661.148438 236.140625 662.4375 237.253906 663.699219 238.394531 C 664.960938 239.539062 666.195312 240.714844 667.402344 241.917969 C 668.605469 243.121094 669.78125 244.355469 670.925781 245.617188 C 672.070312 246.878906 673.183594 248.167969 674.265625 249.484375 C 675.34375 250.800781 676.394531 252.144531 677.410156 253.511719 C 678.421875 254.878906 679.40625 256.269531 680.351562 257.6875 C 681.296875 259.101562 682.210938 260.542969 683.085938 262.003906 C 683.960938 263.464844 684.800781 264.945312 685.605469 266.445312 C 686.410156 267.949219 687.175781 269.46875 687.902344 271.007812 C 688.632812 272.546875 689.320312 274.105469 689.972656 275.679688 C 690.625 277.25 691.238281 278.839844 691.8125 280.445312 C 692.386719 282.046875 692.921875 283.664062 693.417969 285.292969 C 693.910156 286.921875 694.367188 288.5625 694.78125 290.214844 C 695.195312 291.867188 695.566406 293.53125 695.898438 295.199219 C 696.234375 296.871094 696.523438 298.546875 696.773438 300.230469 C 697.023438 301.917969 697.230469 303.605469 697.398438 305.300781 C 697.566406 306.996094 697.691406 308.695312 697.777344 310.394531 C 697.859375 312.097656 697.902344 313.796875 697.902344 315.5 Z M 697.902344 315.5 " fill-opacity="1" fill-rule="nonzero"/><path fill="#ec4899" d="M 79.910156 346.929688 C 79.910156 334.789062 76.023438 329.308594 64.507812 329.308594 C 51.949219 329.308594 44.527344 332.566406 30.445312 349.496094 L 20.730469 361.21875 L 20.730469 406.730469 L 1.167969 406.730469 L 1.167969 313.488281 L 20.523438 313.488281 L 20.523438 336.246094 C 36.339844 315.917969 47.578125 310.921875 66.867188 310.921875 C 88.582031 310.921875 99.195312 319.59375 99.402344 338.671875 L 99.402344 347.136719 Z M 79.910156 346.929688 " fill-opacity="1" fill-rule="nonzero"/><path fill="#ec4899" d="M 214.21875 406.730469 L 214.21875 392.855469 L 202.703125 398.058594 C 195.984375 401.3125 188.980469 403.730469 181.683594 405.3125 C 174.390625 406.898438 167.011719 407.601562 159.550781 407.421875 C 138.738281 406.9375 127.015625 398.960938 127.015625 380.089844 C 127.015625 361.21875 137.210938 353.867188 168.640625 351.230469 L 214.21875 347.761719 C 214.21875 337.144531 211.789062 330.625 181.265625 330.832031 C 154.347656 330.832031 148.9375 331.941406 148.242188 347.96875 L 128.75 347.96875 C 128.75 324.105469 144.84375 312.863281 181.265625 312.863281 C 222.40625 312.863281 233.710938 321.535156 233.710938 343.390625 L 233.710938 406.9375 Z M 173.632812 367.324219 C 152.195312 369.265625 146.507812 372.945312 146.507812 379.394531 C 146.507812 385.847656 149.769531 390.078125 164.128906 390.078125 C 177.101562 390.078125 190.5625 387.441406 214.21875 374.679688 L 214.21875 364.480469 Z M 173.632812 367.324219 " fill-opacity="1" fill-rule="nonzero"/><path fill="#ec4899" d="M 362.335938 276.027344 L 362.335938 406.730469 L 342.5625 406.730469 L 342.5625 395.074219 C 325.84375 405.480469 318.488281 409.367188 300.519531 409.367188 C 271.246094 409.367188 258.410156 398.960938 258.410156 359.902344 C 258.410156 320.84375 271.246094 310.507812 300.519531 310.507812 C 318.488281 310.507812 325.84375 314.390625 342.5625 324.796875 L 342.5625 276.234375 Z M 342.5625 346.71875 C 321.75 331.734375 314.8125 328.058594 300.9375 328.058594 C 283.175781 328.058594 277.765625 336.246094 277.765625 359.902344 C 277.765625 383.558594 283.175781 391.8125 300.9375 391.8125 C 314.8125 391.8125 321.75 388.136719 342.5625 373.152344 Z M 342.5625 346.71875 " fill-opacity="1" fill-rule="nonzero"/><path fill="#ec4899" d="M 393.898438 406.730469 L 393.898438 388.34375 L 431.640625 388.34375 L 431.640625 332.152344 L 393.898438 332.152344 L 393.898438 313.488281 L 451.132812 313.488281 L 451.132812 388.34375 L 487.347656 388.34375 L 487.347656 406.730469 Z M 420.539062 262.777344 L 452.660156 262.777344 L 452.660156 294.828125 L 420.539062 294.828125 Z M 420.539062 262.777344 " fill-opacity="1" fill-rule="nonzero"/><path fill="#ec4899" d="M 56.597656 456.609375 C 73.316406 446.203125 80.671875 442.320312 98.710938 442.320312 C 127.984375 442.320312 140.75 452.726562 140.75 491.714844 C 140.75 530.703125 127.984375 541.179688 98.710938 541.179688 C 80.671875 541.179688 73.316406 537.292969 56.597656 526.886719 L 56.597656 538.542969 L 37.3125 538.542969 L 37.3125 407.839844 L 56.804688 407.839844 Z M 56.597656 505.171875 C 77.410156 520.15625 84.347656 523.835938 98.222656 523.835938 C 115.984375 523.835938 121.464844 515.578125 121.464844 491.921875 C 121.464844 468.265625 115.984375 460.078125 98.222656 460.078125 C 84.347656 460.078125 77.410156 463.753906 56.597656 478.742188 Z M 56.597656 505.171875 " fill-opacity="1" fill-rule="nonzero"/><path fill="#ec4899" d="M 189.382812 535.074219 C 190.492188 552.417969 196.320312 557.621094 222.128906 557.621094 C 242.523438 557.621094 250.5 554.359375 253.554688 544.230469 L 273.535156 544.230469 C 269.855469 567.195312 256.816406 576.074219 222.128906 576.074219 C 179.601562 576.074219 169.679688 562.613281 169.679688 526.609375 C 169.679688 490.605469 179.601562 477.214844 222.128906 477.214844 C 260.285156 477.214844 272.425781 488.035156 274.367188 516.6875 L 274.367188 535.074219 Z M 254.871094 516.6875 C 253.554688 500.59375 247.03125 495.875 222.128906 495.875 C 197.222656 495.875 190.910156 500.871094 189.589844 516.6875 Z M 194.792969 468.125 L 189.9375 455.292969 L 245.4375 427.542969 L 253.625 448.769531 Z M 194.792969 468.125 " fill-opacity="1" fill-rule="nonzero"/><path fill="#ec4899" d="M 327.367188 547.214844 C 329.101562 555.054688 337.773438 558.9375 355.117188 558.9375 C 381.757812 558.9375 387.65625 549.851562 387.65625 534.03125 L 387.65625 527.71875 C 371.144531 537.917969 363.789062 541.59375 346.03125 541.59375 C 316.753906 541.59375 303.921875 531.1875 303.921875 492.128906 C 303.921875 453.070312 316.753906 442.734375 346.03125 442.734375 C 364 442.734375 371.351562 446.621094 387.65625 456.609375 L 387.65625 445.300781 L 407.148438 445.300781 L 407.148438 535.488281 C 407.148438 565.597656 387.03125 576.210938 359.90625 576.210938 C 328.6875 576.210938 307.667969 574.0625 305.863281 547.144531 Z M 387.449219 478.949219 C 366.636719 464.171875 360.113281 460.496094 346.238281 460.496094 C 328.480469 460.496094 323.066406 468.75 323.066406 492.339844 C 323.066406 515.925781 328.480469 524.25 346.238281 524.25 C 360.113281 524.25 367.050781 520.574219 387.449219 505.796875 Z M 387.449219 478.949219 " fill-opacity="1" fill-rule="nonzero"/><path fill="#ec4899" d="M 456.058594 504.269531 C 456.058594 517.105469 459.738281 522.722656 471.460938 522.722656 C 483.183594 522.722656 491.371094 519.464844 505.453125 502.605469 L 515.238281 490.882812 L 515.238281 445.300781 L 534.730469 445.300781 L 534.730469 538.542969 L 515.445312 538.542969 L 515.445312 515.785156 C 499.628906 536.183594 488.320312 541.179688 469.03125 541.179688 C 447.386719 541.179688 436.703125 532.507812 435.871094 513.429688 L 435.871094 445.300781 L 455.367188 445.300781 Z M 456.058594 504.269531 " fill-opacity="1" fill-rule="nonzero"/><path fill="#ec4899" d="M 568.65625 538.542969 L 568.65625 520.15625 L 606.1875 520.15625 L 606.1875 463.964844 L 568.445312 463.964844 L 568.445312 445.300781 L 625.679688 445.300781 L 625.679688 520.15625 L 661.894531 520.15625 L 661.894531 538.542969 Z M 568.65625 538.542969 " fill-opacity="1" fill-rule="nonzero"/><path fill="#ec4899" d="M 775.394531 479.574219 C 775.394531 466.808594 771.648438 461.121094 759.992188 461.121094 C 748.335938 461.121094 740.011719 464.378906 725.929688 481.308594 L 716.148438 493.03125 L 716.148438 538.542969 L 696.375 538.542969 L 696.375 445.300781 L 715.660156 445.300781 L 715.660156 468.058594 C 731.476562 447.730469 742.785156 442.734375 762.074219 442.734375 C 783.71875 442.734375 794.402344 451.40625 794.609375 470.484375 L 794.609375 538.75 L 775.117188 538.75 Z M 775.394531 479.574219 " fill-opacity="1" fill-rule="nonzero"/></svg>