<svg xmlns="http://www.w3.org/2000/svg" width="400" height="400" viewBox="0 0 400 400">
  <rect width="400" height="400" fill="none" />
  <g fill="#6D28D9" opacity="0.08">
    <path d="M0 120C60 70 120 170 200 120C280 70 340 170 400 120V0H0Z"/>
    <path d="M0 240C70 200 130 300 200 240C270 180 330 280 400 220V400H0Z" opacity="0.12"/>
    <path d="M-40 200C30 140 100 260 180 200C260 140 330 260 410 200" opacity="0.2"/>
    <path d="M-10 360C60 300 130 420 210 360C290 300 360 420 440 360" opacity="0.15"/>
    <path d="M-30 40C40 -20 110 100 190 40C270 -20 340 100 420 40" opacity="0.15"/>
  </g>
</svg>
