<svg width="420" height="880" viewBox="0 0 420 880" fill="none" xmlns="http://www.w3.org/2000/svg">
  <rect width="420" height="880" fill="none"/>
  <path d="M0 60C70 20 110 120 180 80C250 40 300 120 360 80C400 60 420 100 420 100V220C350 260 310 160 240 200C170 240 120 140 60 180C20 200 0 160 0 160V60Z" fill="#6D28D9" opacity="0.28"/>
  <path d="M0 260C80 210 120 320 200 270C280 220 340 320 420 270V420C340 470 280 370 200 420C120 470 80 360 0 410V260Z" fill="#6D28D9" opacity="0.22"/>
  <path d="M0 470C60 430 120 520 190 480C260 440 320 520 380 480C410 460 420 500 420 500V650C340 700 280 600 200 650C120 700 80 600 0 650V470Z" fill="#6D28D9" opacity="0.2"/>
  <path d="M0 690C90 630 140 760 220 700C300 640 360 760 420 700V880H0V690Z" fill="#6D28D9" opacity="0.18"/>
</svg>
